# xmcd
#
# Track frame offsets:
#	150
#	17362
#	29069
#	44157
#	59553
#	82927
#	98957
#	113818
#	126510
#	149336
#	165125
#
# Disc length: 2443 seconds
#
# Revision: 1
# Processed by: cddbd v1.5.2PL0 Copyright (c) Steve Scherf et al.
# Submitted via: audiograbber 1.83.01
#
DISCID=9409890b
DTITLE=Jonny Lindblom - Blues på dalsländska
DYEAR=2007
DGENRE=Blues
TTITLE0=bengt runo wadman
TTITLE1=du har gått
TTITLE2=min kvinna försvann
TTITLE3=kom lek med mej
TTITLE4=ett stort oändligt hav
TTITLE5=feskelycka
TTITLE6=kärlekskompromissen
TTITLE7=bengt runo går och tänker
TTITLE8=runos ågren 1
TTITLE9=runos ågren 2
TTITLE10=våran lelle bit
EXTD=
EXTT0=
EXTT1=
EXTT2=
EXTT3=
EXTT4=
EXTT5=
EXTT6=
EXTT7=
EXTT8=
EXTT9=
EXTT10=
PLAYORDER=
